<?xml version="1.0" encoding="utf-8"?>
<svg width="170px" height="170px" viewbox="0 0 170 170" version="1.1" xmlns:xlink="http://www.w3.org/1999/xlink" xmlns="http://www.w3.org/2000/svg">
  <defs>
    <filter id="filter_1">
      <feColorMatrix in="SourceGraphic" type="matrix" values="0 0 0 0 0.7372549 0 0 0 0 0.14117648 0 0 0 0 0.23529412 0 0 0 1 0" />
    </filter>
    <path d="M0 0L170 0L170 170L0 170L0 0Z" id="path_1" />
    <clipPath id="mask_1">
      <use xlink:href="#path_1" />
    </clipPath>
  </defs>
  <g id="Cancel-icon" filter="url(#filter_1)">
    <path d="M0 0L170 0L170 170L0 170L0 0Z" id="Background" fill="none" fill-rule="evenodd" stroke="none" />
    <g clip-path="url(#mask_1)">
      <path d="M83.774 0C37.5195 0 0 37.5195 0 83.774C0 130.029 37.5195 167.548 83.774 167.548C130.029 167.548 167.548 130.029 167.548 83.774C167.548 37.5195 130.029 0 83.774 0L83.774 0ZM121.575 112.508L112.482 121.575C110.822 123.235 108.114 123.235 106.454 121.575L83.774 98.8942L61.0938 121.575C59.4336 123.235 56.7263 123.235 55.0661 121.549L45.9736 112.508C44.3389 110.822 44.3389 108.14 45.9736 106.454L68.6538 83.774L45.9991 61.1193C44.3389 59.4336 44.3389 56.7263 45.9991 55.0661L55.0661 45.9991C56.7263 44.3134 59.4591 44.3134 61.1193 45.9991L83.774 68.6538L106.454 45.9991C108.114 44.3134 110.847 44.3134 112.482 45.9991L121.575 55.0406C123.235 56.7263 123.235 59.4336 121.575 61.1193L98.8942 83.774L121.575 106.454C123.209 108.14 123.209 110.822 121.575 112.508L121.575 112.508Z" transform="translate(1.2259521 1.2259598)" id="Shape" fill="#FFFFFF" fill-rule="evenodd" stroke="none" />
    </g>
  </g>
</svg>